<?xml version="1.0" encoding="UTF-8" standalone="no"?>
<svg width="457px" height="467px" viewBox="0 0 457 467" version="1.1" xmlns="http://www.w3.org/2000/svg" xmlns:xlink="http://www.w3.org/1999/xlink">
    <!-- Generator: Sketch 3.8.1 (29687) - http://www.bohemiancoding.com/sketch -->
    <title>Logo</title>
    <desc>Created with Sketch.</desc>
    <defs></defs>
    <g id="Welcome" stroke="none" stroke-width="1" fill="none" fill-rule="evenodd">
        <g id="Desktop-HD" transform="translate(-180.000000, -279.000000)">
            <g id="Group-4" transform="translate(72.000000, 173.000000)">
                <g id="Group-3">
                    <g id="Logo">
                        <circle id="Oval-1" stroke="#9B9B9B" stroke-width="2" cx="336" cy="339" r="225"></circle>
                        <circle id="Oval-1" stroke="#FFFFFF" stroke-width="2" cx="336" cy="484" r="75"></circle>
                        <circle id="Oval-1" stroke="#FFFFFF" stroke-width="2" cx="336" cy="189" r="75"></circle>
                        <circle id="Oval-1" stroke="#FFFFFF" stroke-width="2" cx="186" cy="339" r="75"></circle>
                        <circle id="Oval-1" stroke="#FFFFFF" stroke-width="2" cx="486" cy="339" r="75"></circle>
                        <polygon id="Polygon-1" stroke="#FFFFFF" transform="translate(336.500000, 339.500000) rotate(25.000000) translate(-336.500000, -339.500000) " points="336.5 83 588 339.5 336.5 596 85 339.5"></polygon>
                        <g id="Arrow" transform="translate(110.000000, 100.000000)" fill="#FFFFFF">
                          <path d="m230,202l-3,10.8l6,0l-3,-10.8z" id="Line-decoration-1"/>
                          <path transform="rotate(120 261.09057617187506,261.3111572265625) " id="svg_1" d="m261.09058,255.91116l-3,10.8l6,0l-3,-10.8z"/>
                          <path transform="rotate(-120 197.54565429687494,260.24328613281244) " id="svg_2" d="m197.54565,254.84328l-3,10.8l6,0l-3,-10.8z"/>
                        </g>
                    </g>
                </g>
            </g>
        </g>
    </g>
</svg>
