<?xml version="1.0" encoding="UTF-8" standalone="no"?>
<svg width="457px" height="467px" viewBox="0 0 457 467" version="1.1" xmlns="http://www.w3.org/2000/svg" xmlns:xlink="http://www.w3.org/1999/xlink">
    <!-- Generator: Sketch 3.8.1 (29687) - http://www.bohemiancoding.com/sketch -->
    <title>Logo</title>
    <desc>Created with Sketch.</desc>
    <defs></defs>
    <g id="Welcome" stroke="none" stroke-width="1" fill="none" fill-rule="evenodd">
        <g id="Desktop-HD" transform="translate(-886.000000, -1541.000000)">
            <g id="Logo" transform="translate(778.000000, 1435.000000)">
                <circle id="Oval-1" stroke="#9B9B9B" stroke-width="2" cx="336" cy="339" r="225"></circle>
                <circle id="Oval-1" stroke="#FFFFFF" stroke-width="2" cx="336" cy="484" r="75"></circle>
                <circle id="Oval-1" stroke="#FFFFFF" stroke-width="2" cx="336" cy="189" r="75"></circle>
                <circle id="Oval-1" stroke="#FFFFFF" stroke-width="2" cx="186" cy="339" r="75"></circle>
                <circle id="Oval-1" stroke="#FFFFFF" stroke-width="2" cx="486" cy="339" r="75"></circle>
                <polygon id="Polygon-1" stroke="#FFFFFF" transform="translate(336.500000, 339.500000) rotate(25.000000) translate(-336.500000, -339.500000) " points="336.5 83 588 339.5 336.5 596 85 339.5"></polygon>
                <g id="Arrow" transform="translate(321.000000, 307.000000)" fill="#FFFFFF">
                    <path d="M16,39.5 L16,0" id="Line"></path>
                    <path id="Line-decoration-1" d="M16,0 L13,10.8 L19,10.8 L16,0 Z"></path>
                    <path d="M19.5,22 L12,14" id="Line"></path>
                    <path id="Line-decoration-1" d="M12,14 L17.1979526,23.9308252 L21.5751758,19.8271784 L12,14 Z"></path>
                    <path d="M0.499999985,20 L20,26" id="Line"></path>
                    <path id="Line-decoration-1" d="M20,26 L10.5598443,19.9565358 L8.79532916,25.6912099 L20,26 Z"></path>
                    <path d="M13.8055143,28 L21.3055143,30" id="Line" transform="translate(17.555514, 29.000000) scale(-1, 1) translate(-17.555514, -29.000000) "></path>
                    <path id="Line-decoration-1" d="M21.3055143,30 L11.6431649,24.3185386 L10.097189,30.1159482 L21.3055143,30 Z"></path>
                    <path d="M11,31 L17.9431583,32.8499756" id="Line"></path>
                    <path id="Line-decoration-1" d="M17.9431583,32.8499756 L8.27963767,27.1705065 L6.73485714,32.9682348 L17.9431583,32.8499756 Z"></path>
                    <path d="M15.9431583,38 L9,39.8499756" id="Line" transform="translate(12.471579, 38.924988) scale(-1, 1) translate(-12.471579, -38.924988) "></path>
                    <path id="Line-decoration-1" d="M9,39.8499756 L20.2083012,39.9682348 L18.6635206,34.1705065 L9,39.8499756 Z"></path>
                    <path d="M23.5,38 L16,40" id="Line"></path>
                    <path id="Line-decoration-1" d="M16,40 L27.2083253,40.1159482 L25.6623494,34.3185386 L16,40 Z"></path>
                </g>
            </g>
        </g>
    </g>
</svg>